<?xml version="1.0" encoding="utf-8"?>
<!-- Generator: Adobe Illustrator 26.0.2, SVG Export Plug-In . SVG Version: 6.00 Build 0)  -->
<svg version="1.1" id="Layer_1" xmlns="http://www.w3.org/2000/svg" xmlns:xlink="http://www.w3.org/1999/xlink" x="0px" y="0px"
	 viewBox="0 0 1000 929.3" style="enable-background:new 0 0 1000 929.3;" xml:space="preserve">
<style type="text/css">
	.st0{fill:#0F172A;}
</style>
<g id="Layer_2_00000116936264469283771870000017793720720443022994_">
	<g id="Layer_1-2">
		<rect x="717" class="st0" width="283" height="283"/>
		<rect x="358.5" class="st0" width="283" height="283"/>
		<path class="st0" d="M0,283L0,283c0,156.3,126.7,283,283,283l0,0V0l0,0C126.7,0,0,126.7,0,283z"/>
		<path class="st0" d="M717,646.2L717,646.2c156.3,0,283-126.7,283-283H717V646.2z"/>
		<path class="st0" d="M358.5,363.2L358.5,363.2v566l0,0c156.3,0,283-126.7,283-283l0,0C641.5,489.9,514.8,363.2,358.5,363.2z"/>
		<path class="st0" d="M141.5,646.2C63.4,646.2,0,709.6,0,787.7c0,0,0,0,0,0l0,0c0.9,78.1,65,140.7,143.2,139.8
			c76.8-0.9,138.9-63,139.8-139.8l0,0C283,709.6,219.7,646.2,141.5,646.2z"/>
	</g>
</g>
</svg>
