<?xml version="1.0" encoding="utf-8"?>
<!-- Generator: Adobe Illustrator 26.0.2, SVG Export Plug-In . SVG Version: 6.00 Build 0)  -->
<svg version="1.1" id="Layer_1" xmlns="http://www.w3.org/2000/svg" xmlns:xlink="http://www.w3.org/1999/xlink" x="0px" y="0px"
	 viewBox="0 0 1000 125.4" style="enable-background:new 0 0 1000 125.4;" xml:space="preserve">
<style type="text/css">
	.st0{fill:#0F172A;}
</style>
<g id="Layer_2_00000016771207958081182620000002896603302026211765_">
	<g id="Layer_1-2">
		<path class="st0" d="M80.7,61.6c-3.4-2.8-7.1-5.2-11.1-7c-4-1.8-8-3.4-12.1-4.8c-4.1-1.4-7.8-2.8-11.2-4.1c-3-1.1-5.8-2.8-8.2-4.9
			c-2.1-1.9-3.2-4.7-3.1-7.5c-0.1-3.1,1.5-6,4.1-7.6c2.7-1.7,6.5-2.6,11.2-2.6c4.4-0.1,8.7,0.9,12.7,2.8c4.1,2.2,7.9,5,11.1,8.4
			l17.5-17.4c-4.8-5.3-10.8-9.5-17.4-12.2c-7.4-3-15.3-4.6-23.3-4.5C43.3,0,35.7,1.5,28.7,4.4c-6.1,2.6-11.3,6.8-15,12.3
			c-3.6,5.4-5.4,11.8-5.4,19.2c0,6.2,1,11.3,3.1,15.4c1.9,3.9,4.7,7.4,8.2,10.1c3.4,2.7,7.1,4.9,11.1,6.7c4,1.8,8,3.4,12.1,4.7
			s7.8,2.8,11.2,4.3c3,1.3,5.8,3.1,8.1,5.3c2.1,2.2,3.2,5.1,3.1,8.1c0.1,3.5-1.7,6.8-4.7,8.6c-3.2,2.1-7.6,3.1-13.3,3.1
			c-5.7,0.1-11.4-1.1-16.6-3.7c-5-2.6-9.4-6.1-13-10.4L0,105.5c5.5,6.3,12.2,11.3,19.7,14.9c7.2,3.3,15.7,4.9,25.7,4.9
			c14.6,0,26-3.3,34.2-9.9s12.4-15.7,12.4-27.2c0-6.3-1-11.6-3.1-15.9C86.9,68.1,84.1,64.5,80.7,61.6z"/>
		<path class="st0" d="M213.1,18c-5.8-5.7-12.7-10.2-20.3-13.3c-16.2-6.3-34.3-6.3-50.5,0c-15.2,6.1-27.3,18-33.6,33.1
			c-3.2,7.8-4.9,16.3-4.8,24.7c-0.1,8.5,1.6,16.8,4.8,24.7c3.1,7.5,7.8,14.3,13.6,20c5.9,5.7,12.8,10.3,20.4,13.4
			c8,3.3,16.6,4.9,25.3,4.8c8.6,0.1,17.1-1.6,25-4.8c7.5-3.1,14.4-7.6,20.2-13.3c5.7-5.7,10.3-12.5,13.4-19.9
			c3.2-7.8,4.9-16.2,4.8-24.7c0.1-8.5-1.6-17-4.8-24.8C223.5,30.4,218.9,23.7,213.1,18z M199.3,82.6c-2.8,5.6-7.2,10.3-12.6,13.5
			c-5.8,3.3-12.3,5-19,4.8c-5.1,0.1-10.1-0.9-14.8-2.8c-4.3-1.7-8.2-4.4-11.4-7.8c-3.2-3.5-5.7-7.6-7.3-12.1
			c-1.8-5-2.6-10.3-2.6-15.6c0-7.7,1.5-14.3,4.5-20c2.8-5.6,7.2-10.2,12.7-13.3c5.8-3.2,12.4-4.9,19-4.7c5-0.1,10,0.8,14.7,2.7
			c4.3,1.7,8.2,4.4,11.4,7.8c3.3,3.5,5.8,7.5,7.4,12c1.8,5,2.7,10.3,2.6,15.5C203.9,69.5,202.4,76.3,199.3,82.6L199.3,82.6z"/>
		<path class="st0" d="M323.9,97.8c-5.1,2.1-10.6,3-16.1,2.9c-5,0.1-9.9-0.9-14.5-2.8c-4.3-1.7-8.1-4.4-11.3-7.7
			c-3.2-3.5-5.8-7.5-7.4-12c-1.8-5-2.7-10.3-2.7-15.6c-0.1-5.3,0.8-10.5,2.7-15.5c1.6-4.5,4.1-8.5,7.4-12c3.2-3.3,7-5.9,11.3-7.6
			c4.6-1.8,9.6-2.7,14.5-2.7c5.4-0.1,10.7,0.9,15.7,2.9c4.4,1.9,8.3,4.6,11.6,8.1l18-18.2c-5.7-5.5-12.3-9.8-19.6-12.8
			c-8.2-3.2-16.9-4.8-25.7-4.6c-8.6-0.1-17.2,1.5-25.2,4.7c-7.5,3-14.4,7.5-20.2,13.1c-5.7,5.7-10.3,12.4-13.4,19.9
			c-3.2,7.8-4.9,16.2-4.8,24.7c-0.1,8.5,1.6,16.8,4.8,24.7c6.3,15.2,18.5,27.2,33.8,33.3c8,3.2,16.6,4.8,25.2,4.7
			c9.8,0,18.5-1.5,26-4.6c7.4-3,14.1-7.3,20-12.7l-18.2-18.2C332.4,93.2,328.3,95.9,323.9,97.8z"/>
		<rect x="368.7" y="2.1" class="st0" width="27" height="121.3"/>
		<path class="st0" d="M458.1,2.1L410,123.4h28l8.1-22h47.5l8,22h28.5L482.5,2.1H458.1z M454.1,79.4L470,36.1l15.7,43.3H454.1z"/>
		<polygon class="st0" points="569.9,2.1 543,2.1 543,123.4 563.8,123.4 569.9,123.4 623.7,123.4 623.7,99.7 569.9,99.7 		"/>
		<polygon class="st0" points="649.5,6.2 643.6,6.2 643.6,123.4 652.8,123.4 652.8,69.1 713.7,69.1 713.7,60.8 652.8,60.8 
			652.8,14.4 716.7,14.4 716.7,6.2 652.8,6.2 		"/>
		<rect x="741.1" y="6.2" class="st0" width="9.1" height="117.2"/>
		<path class="st0" d="M843,65.6c5.1-2.4,9.4-6.3,12.4-11.1c2.9-5,4.4-10.7,4.3-16.5c0.1-5.8-1.4-11.6-4.3-16.6
			c-2.9-4.8-7.2-8.7-12.3-11.2c-5.4-2.7-11.9-4-19.4-4h-41.5v117.2h9.1V69.6h21.4l43.7,53.8h11.8l-44.4-53.8
			C831.3,69.6,837.7,68.2,843,65.6z M791.2,14.3h32.6c8.7,0,15.3,2.2,19.8,6.5s6.8,10.1,6.8,17.2c0,7.2-2.3,13-6.9,17.4
			c-4.6,4.4-11.2,6.5-19.8,6.5h-32.6V14.3z"/>
		<polygon class="st0" points="993.5,6.2 944.4,86.6 895.4,6.2 888.8,6.2 888.8,123.4 897.9,123.4 897.9,25.7 941.2,96.7 
			947.8,96.7 990.9,26 990.9,123.4 1000,123.4 1000,6.2 		"/>
	</g>
</g>
</svg>
